<?xml version="1.0" encoding="UTF-8" standalone="no"?>
<!-- Created with Inkscape (http://www.inkscape.org/) -->

<svg
   width="660"
   height="660"
   viewBox="0 0 174.625 174.62499"
   version="1.1"
   id="svg5"
   inkscape:version="1.2.1 (9c6d41e410, 2022-07-14)"
   sodipodi:docname="app-logo.svg"
   xml:space="preserve"
   inkscape:export-filename="app-logo.png"
   inkscape:export-xdpi="186.18182"
   inkscape:export-ydpi="186.18182"
   xmlns:inkscape="http://www.inkscape.org/namespaces/inkscape"
   xmlns:sodipodi="http://sodipodi.sourceforge.net/DTD/sodipodi-0.dtd"
   xmlns:xlink="http://www.w3.org/1999/xlink"
   xmlns="http://www.w3.org/2000/svg"
   xmlns:svg="http://www.w3.org/2000/svg"><sodipodi:namedview
     id="namedview7"
     pagecolor="#505050"
     bordercolor="#ffffff"
     borderopacity="1"
     inkscape:showpageshadow="0"
     inkscape:pageopacity="0"
     inkscape:pagecheckerboard="1"
     inkscape:deskcolor="#505050"
     inkscape:document-units="mm"
     showgrid="false"
     inkscape:zoom="0.80444024"
     inkscape:cx="221.89343"
     inkscape:cy="426.38345"
     inkscape:window-width="1920"
     inkscape:window-height="1057"
     inkscape:window-x="1912"
     inkscape:window-y="-8"
     inkscape:window-maximized="1"
     inkscape:current-layer="layer1" /><defs
     id="defs2"><linearGradient
       inkscape:collect="always"
       id="linearGradient12533"><stop
         style="stop-color:#00c0ff;stop-opacity:1;"
         offset="0"
         id="stop12529" /><stop
         style="stop-color:#ff0000;stop-opacity:1;"
         offset="1"
         id="stop12531" /></linearGradient><linearGradient
       inkscape:collect="always"
       xlink:href="#linearGradient12533"
       id="linearGradient12535"
       x1="19.136499"
       y1="12.898103"
       x2="170.31201"
       y2="176.55038"
       gradientUnits="userSpaceOnUse"
       gradientTransform="translate(-2.8557564,2.5141155)" /><linearGradient
       inkscape:collect="always"
       xlink:href="#linearGradient12533"
       id="linearGradient13593"
       gradientUnits="userSpaceOnUse"
       gradientTransform="translate(-2.855757,-0.72868016)"
       x1="19.136499"
       y1="12.898103"
       x2="170.31201"
       y2="176.55038" /><clipPath
       clipPathUnits="userSpaceOnUse"
       id="clipPath14684"><g
         id="g14722"
         style="fill:#ff7f2a;fill-opacity:1"><path
           sodipodi:type="star"
           style="fill:#ff7f2a;fill-opacity:1;fill-rule:evenodd;stroke-width:1.85208;stroke-linecap:round;paint-order:stroke fill markers"
           id="path14686"
           inkscape:flatsided="true"
           sodipodi:sides="6"
           sodipodi:cx="52.295681"
           sodipodi:cy="40.126244"
           sodipodi:r1="18.896938"
           sodipodi:r2="16.365229"
           sodipodi:arg1="-1.0471976"
           sodipodi:arg2="-0.52359878"
           inkscape:rounded="0"
           inkscape:randomized="0"
           d="m 61.744149,23.761014 9.44847,16.365229 -9.448468,16.365229 -18.896938,10e-7 -9.44847,-16.365228 9.448468,-16.36523 z"
           transform="matrix(0.9,0,0,0.9,76.003546,42.245401)" /><path
           sodipodi:type="star"
           style="fill:#ff7f2a;fill-opacity:1;fill-rule:evenodd;stroke-width:1.85208;stroke-linecap:round;paint-order:stroke fill markers"
           id="path14688"
           inkscape:flatsided="true"
           sodipodi:sides="6"
           sodipodi:cx="52.295681"
           sodipodi:cy="40.126244"
           sodipodi:r1="18.896938"
           sodipodi:r2="16.365229"
           sodipodi:arg1="-1.0471976"
           sodipodi:arg2="-0.52359878"
           inkscape:rounded="0"
           inkscape:randomized="0"
           d="m 61.744149,23.761014 9.44847,16.365229 -9.448468,16.365229 -18.896938,10e-7 -9.44847,-16.365228 9.448468,-16.36523 z"
           transform="matrix(0.9,0,0,0.9,76.003546,74.97586)" /><path
           sodipodi:type="star"
           style="fill:#ff7f2a;fill-opacity:1;fill-rule:evenodd;stroke-width:1.85208;stroke-linecap:round;paint-order:stroke fill markers"
           id="path14690"
           inkscape:flatsided="true"
           sodipodi:sides="6"
           sodipodi:cx="52.295681"
           sodipodi:cy="40.126244"
           sodipodi:r1="18.896938"
           sodipodi:r2="16.365229"
           sodipodi:arg1="-1.0471976"
           sodipodi:arg2="-0.52359878"
           inkscape:rounded="0"
           inkscape:randomized="0"
           d="m 61.744149,23.761014 9.44847,16.365229 -9.448468,16.365229 -18.896938,10e-7 -9.44847,-16.365228 9.448468,-16.36523 z"
           transform="matrix(0.9,0,0,0.9,47.658139,91.341089)" /><path
           sodipodi:type="star"
           style="fill:#ff7f2a;fill-opacity:1;fill-rule:evenodd;stroke-width:1.85208;stroke-linecap:round;paint-order:stroke fill markers"
           id="path14692"
           inkscape:flatsided="true"
           sodipodi:sides="6"
           sodipodi:cx="52.295681"
           sodipodi:cy="40.126244"
           sodipodi:r1="18.896938"
           sodipodi:r2="16.365229"
           sodipodi:arg1="-1.0471976"
           sodipodi:arg2="-0.52359878"
           inkscape:rounded="0"
           inkscape:randomized="0"
           d="m 61.744149,23.761014 9.44847,16.365229 -9.448468,16.365229 -18.896938,10e-7 -9.44847,-16.365228 9.448468,-16.36523 z"
           transform="matrix(0.9,0,0,0.9,19.312732,74.975861)" /><path
           sodipodi:type="star"
           style="fill:#ff7f2a;fill-opacity:1;fill-rule:evenodd;stroke-width:1.85208;stroke-linecap:round;paint-order:stroke fill markers"
           id="path14694"
           inkscape:flatsided="true"
           sodipodi:sides="6"
           sodipodi:cx="52.295681"
           sodipodi:cy="40.126244"
           sodipodi:r1="18.896938"
           sodipodi:r2="16.365229"
           sodipodi:arg1="-1.0471976"
           sodipodi:arg2="-0.52359878"
           inkscape:rounded="0"
           inkscape:randomized="0"
           d="m 61.744149,23.761014 9.44847,16.365229 -9.448468,16.365229 -18.896938,10e-7 -9.44847,-16.365228 9.448468,-16.36523 z"
           transform="matrix(0.9,0,0,0.9,19.312732,42.245402)" /><path
           sodipodi:type="star"
           style="fill:#ff7f2a;fill-opacity:1;fill-rule:evenodd;stroke-width:1.85208;stroke-linecap:round;paint-order:stroke fill markers"
           id="path14696"
           inkscape:flatsided="true"
           sodipodi:sides="6"
           sodipodi:cx="52.295681"
           sodipodi:cy="40.126244"
           sodipodi:r1="18.896938"
           sodipodi:r2="16.365229"
           sodipodi:arg1="-1.0471976"
           sodipodi:arg2="-0.52359878"
           inkscape:rounded="0"
           inkscape:randomized="0"
           d="m 61.744149,23.761014 9.44847,16.365229 -9.448468,16.365229 -18.896938,10e-7 -9.44847,-16.365228 9.448468,-16.36523 z"
           transform="matrix(0.9,0,0,0.9,47.658139,25.880172)" /><path
           sodipodi:type="star"
           style="fill:#ff7f2a;fill-opacity:1;fill-rule:evenodd;stroke-width:1.85208;stroke-linecap:round;paint-order:stroke fill markers"
           id="path14698"
           inkscape:flatsided="true"
           sodipodi:sides="6"
           sodipodi:cx="52.295681"
           sodipodi:cy="40.126244"
           sodipodi:r1="18.896938"
           sodipodi:r2="16.365229"
           sodipodi:arg1="-1.0471976"
           sodipodi:arg2="-0.52359878"
           inkscape:rounded="0"
           inkscape:randomized="0"
           d="m 61.744149,23.761014 9.44847,16.365229 -9.448468,16.365229 -18.896938,10e-7 -9.44847,-16.365228 9.448468,-16.36523 z"
           transform="matrix(0.9,0,0,0.9,-9.0326749,58.610632)" /><path
           sodipodi:type="star"
           style="fill:#ff7f2a;fill-opacity:1;fill-rule:evenodd;stroke-width:1.85208;stroke-linecap:round;paint-order:stroke fill markers"
           id="path14700"
           inkscape:flatsided="true"
           sodipodi:sides="6"
           sodipodi:cx="52.295681"
           sodipodi:cy="40.126244"
           sodipodi:r1="18.896938"
           sodipodi:r2="16.365229"
           sodipodi:arg1="-1.0471976"
           sodipodi:arg2="-0.52359878"
           inkscape:rounded="0"
           inkscape:randomized="0"
           d="m 61.744149,23.761014 9.44847,16.365229 -9.448468,16.365229 -18.896938,10e-7 -9.44847,-16.365228 9.448468,-16.36523 z"
           transform="matrix(0.9,0,0,0.9,104.34895,58.61063)" /><path
           sodipodi:type="star"
           style="fill:#ff7f2a;fill-opacity:1;fill-rule:evenodd;stroke-width:1.85208;stroke-linecap:round;paint-order:stroke fill markers"
           id="path14702"
           inkscape:flatsided="true"
           sodipodi:sides="6"
           sodipodi:cx="52.295681"
           sodipodi:cy="40.126244"
           sodipodi:r1="18.896938"
           sodipodi:r2="16.365229"
           sodipodi:arg1="-1.0471976"
           sodipodi:arg2="-0.52359878"
           inkscape:rounded="0"
           inkscape:randomized="0"
           d="m 61.744149,23.761014 9.44847,16.365229 -9.448468,16.365229 -18.896938,10e-7 -9.44847,-16.365228 9.448468,-16.36523 z"
           transform="matrix(0.9,0,0,0.9,76.003547,107.70631)" /><path
           sodipodi:type="star"
           style="fill:#ff7f2a;fill-opacity:1;fill-rule:evenodd;stroke-width:1.85208;stroke-linecap:round;paint-order:stroke fill markers"
           id="path14704"
           inkscape:flatsided="true"
           sodipodi:sides="6"
           sodipodi:cx="52.295681"
           sodipodi:cy="40.126244"
           sodipodi:r1="18.896938"
           sodipodi:r2="16.365229"
           sodipodi:arg1="-1.0471976"
           sodipodi:arg2="-0.52359878"
           inkscape:rounded="0"
           inkscape:randomized="0"
           d="m 61.744149,23.761014 9.44847,16.365229 -9.448468,16.365229 -18.896938,10e-7 -9.44847,-16.365228 9.448468,-16.36523 z"
           transform="matrix(0.9,0,0,0.9,47.65814,124.07154)" /><path
           sodipodi:type="star"
           style="fill:#ff7f2a;fill-opacity:1;fill-rule:evenodd;stroke-width:1.85208;stroke-linecap:round;paint-order:stroke fill markers"
           id="path14706"
           inkscape:flatsided="true"
           sodipodi:sides="6"
           sodipodi:cx="52.295681"
           sodipodi:cy="40.126244"
           sodipodi:r1="18.896938"
           sodipodi:r2="16.365229"
           sodipodi:arg1="-1.0471976"
           sodipodi:arg2="-0.52359878"
           inkscape:rounded="0"
           inkscape:randomized="0"
           d="m 61.744149,23.761014 9.44847,16.365229 -9.448468,16.365229 -18.896938,10e-7 -9.44847,-16.365228 9.448468,-16.36523 z"
           transform="matrix(0.9,0,0,0.9,47.658139,-6.8502866)" /><path
           sodipodi:type="star"
           style="fill:#ff7f2a;fill-opacity:1;fill-rule:evenodd;stroke-width:1.85208;stroke-linecap:round;paint-order:stroke fill markers"
           id="path14708"
           inkscape:flatsided="true"
           sodipodi:sides="6"
           sodipodi:cx="52.295681"
           sodipodi:cy="40.126244"
           sodipodi:r1="18.896938"
           sodipodi:r2="16.365229"
           sodipodi:arg1="-1.0471976"
           sodipodi:arg2="-0.52359878"
           inkscape:rounded="0"
           inkscape:randomized="0"
           d="m 61.744149,23.761014 9.44847,16.365229 -9.448468,16.365229 -18.896938,10e-7 -9.44847,-16.365228 9.448468,-16.36523 z"
           transform="matrix(0.9,0,0,0.9,76.003546,9.5149433)" /><path
           sodipodi:type="star"
           style="fill:#ff7f2a;fill-opacity:1;fill-rule:evenodd;stroke-width:1.85208;stroke-linecap:round;paint-order:stroke fill markers"
           id="path14710"
           inkscape:flatsided="true"
           sodipodi:sides="6"
           sodipodi:cx="52.295681"
           sodipodi:cy="40.126244"
           sodipodi:r1="18.896938"
           sodipodi:r2="16.365229"
           sodipodi:arg1="-1.0471976"
           sodipodi:arg2="-0.52359878"
           inkscape:rounded="0"
           inkscape:randomized="0"
           d="m 61.744149,23.761014 9.44847,16.365229 -9.448468,16.365229 -18.896938,10e-7 -9.44847,-16.365228 9.448468,-16.36523 z"
           transform="matrix(0.9,0,0,0.9,104.34895,25.880172)" /><path
           sodipodi:type="star"
           style="fill:#ff7f2a;fill-opacity:1;fill-rule:evenodd;stroke-width:1.85208;stroke-linecap:round;paint-order:stroke fill markers"
           id="path14712"
           inkscape:flatsided="true"
           sodipodi:sides="6"
           sodipodi:cx="52.295681"
           sodipodi:cy="40.126244"
           sodipodi:r1="18.896938"
           sodipodi:r2="16.365229"
           sodipodi:arg1="-1.0471976"
           sodipodi:arg2="-0.52359878"
           inkscape:rounded="0"
           inkscape:randomized="0"
           d="m 61.744149,23.761014 9.44847,16.365229 -9.448468,16.365229 -18.896938,10e-7 -9.44847,-16.365228 9.448468,-16.36523 z"
           transform="matrix(0.9,0,0,0.9,104.34895,91.341085)" /><path
           sodipodi:type="star"
           style="fill:#ff7f2a;fill-opacity:1;fill-rule:evenodd;stroke-width:1.85208;stroke-linecap:round;paint-order:stroke fill markers"
           id="path14714"
           inkscape:flatsided="true"
           sodipodi:sides="6"
           sodipodi:cx="52.295681"
           sodipodi:cy="40.126244"
           sodipodi:r1="18.896938"
           sodipodi:r2="16.365229"
           sodipodi:arg1="-1.0471976"
           sodipodi:arg2="-0.52359878"
           inkscape:rounded="0"
           inkscape:randomized="0"
           d="m 61.744149,23.761014 9.44847,16.365229 -9.448468,16.365229 -18.896938,10e-7 -9.44847,-16.365228 9.448468,-16.36523 z"
           transform="matrix(0.9,0,0,0.9,19.312732,107.70631)" /><path
           sodipodi:type="star"
           style="fill:#ff7f2a;fill-opacity:1;fill-rule:evenodd;stroke-width:1.85208;stroke-linecap:round;paint-order:stroke fill markers"
           id="path14716"
           inkscape:flatsided="true"
           sodipodi:sides="6"
           sodipodi:cx="52.295681"
           sodipodi:cy="40.126244"
           sodipodi:r1="18.896938"
           sodipodi:r2="16.365229"
           sodipodi:arg1="-1.0471976"
           sodipodi:arg2="-0.52359878"
           inkscape:rounded="0"
           inkscape:randomized="0"
           d="m 61.744149,23.761014 9.44847,16.365229 -9.448468,16.365229 -18.896938,10e-7 -9.44847,-16.365228 9.448468,-16.36523 z"
           transform="matrix(0.9,0,0,0.9,-9.0326749,91.34109)" /><path
           sodipodi:type="star"
           style="fill:#ff7f2a;fill-opacity:1;fill-rule:evenodd;stroke-width:1.85208;stroke-linecap:round;paint-order:stroke fill markers"
           id="path14718"
           inkscape:flatsided="true"
           sodipodi:sides="6"
           sodipodi:cx="52.295681"
           sodipodi:cy="40.126244"
           sodipodi:r1="18.896938"
           sodipodi:r2="16.365229"
           sodipodi:arg1="-1.0471976"
           sodipodi:arg2="-0.52359878"
           inkscape:rounded="0"
           inkscape:randomized="0"
           d="m 61.744149,23.761014 9.44847,16.365229 -9.448468,16.365229 -18.896938,10e-7 -9.44847,-16.365228 9.448468,-16.36523 z"
           transform="matrix(0.9,0,0,0.9,-9.0326749,25.880173)" /><path
           sodipodi:type="star"
           style="fill:#ff7f2a;fill-opacity:1;fill-rule:evenodd;stroke-width:1.85208;stroke-linecap:round;paint-order:stroke fill markers"
           id="path14720"
           inkscape:flatsided="true"
           sodipodi:sides="6"
           sodipodi:cx="52.295681"
           sodipodi:cy="40.126244"
           sodipodi:r1="18.896938"
           sodipodi:r2="16.365229"
           sodipodi:arg1="-1.0471976"
           sodipodi:arg2="-0.52359878"
           inkscape:rounded="0"
           inkscape:randomized="0"
           d="m 61.744149,23.761014 9.44847,16.365229 -9.448468,16.365229 -18.896938,10e-7 -9.44847,-16.365228 9.448468,-16.36523 z"
           transform="matrix(0.9,0,0,0.9,19.312732,9.5149443)" /></g></clipPath></defs><g
     inkscape:label="Layer 1"
     inkscape:groupmode="layer"
     id="layer1"
     transform="translate(-13.36314,-7.898226)"><g
       id="g17719"
       transform="translate(5.9514057,0.486483)"><path
         id="path9000"
         style="fill:#000000;fill-opacity:1;fill-rule:evenodd;stroke:#000000;stroke-width:5;stroke-linecap:round;stroke-dasharray:none;stroke-opacity:1;paint-order:stroke fill markers"
         d="M 85.275695,12.898226 75.827176,29.263118 H 56.930138 l -9.448519,16.36541 H 28.584581 l -9.448002,16.365409 9.448002,16.364895 -9.448002,16.36541 9.448002,16.365408 -9.448002,16.36489 9.448002,16.3654 h 18.897038 l 9.448519,16.36541 h 18.897038 l 9.448519,16.36491 h 18.897035 l 9.44852,-16.36491 h 18.89652 l 9.44852,-16.36541 h 18.89704 l 9.44852,-16.3654 -9.44852,-16.36489 9.44852,-16.365408 -9.44852,-16.36541 9.44852,-16.364895 -9.44852,-16.365409 h -18.89704 l -9.44852,-16.36541 h -18.89652 l -9.44852,-16.364892 z m 0,65.460606 h 18.897035 l 9.44852,16.36541 -9.44852,16.365408 H 85.275695 L 75.827176,94.724242 Z" /><path
         style="fill:#ffffff;fill-opacity:1;stroke:none;stroke-width:0.264583px;stroke-linecap:butt;stroke-linejoin:miter;stroke-opacity:1"
         d="m 55.040682,61.993791 2.834542,-1.636522 25.510865,-14.728706 2.83454,-1.636525 h 17.007241 l 2.83454,1.636525 25.51087,14.728703 2.83454,1.636525 8.50362,14.728705 v 3.273047 29.457407 3.27305 l -8.50362,14.7287 -2.83454,1.63652 -25.51086,14.72871 -2.83455,1.63652 H 86.220629 l -2.83454,-1.63652 -25.510868,-14.72871 -2.834539,-1.63651 -8.503624,-14.72871 3e-6,-3.27305 -3e-6,-29.457407 3e-6,-3.273047 z"
         id="path14778" /><rect
         style="fill:url(#linearGradient13593);fill-opacity:1;fill-rule:evenodd;stroke:none;stroke-width:10;stroke-linecap:round;stroke-dasharray:none;stroke-opacity:1;paint-order:stroke fill markers"
         id="rect12088"
         width="175.30563"
         height="186.15947"
         x="7.0714364"
         y="1.6445082"
         clip-path="url(#clipPath14684)" /></g></g></svg>
